<svg width="1200" height="760" viewBox="0 0 1200 760" fill="none" xmlns="http://www.w3.org/2000/svg" role="img" aria-labelledby="title desc">
  <title id="title">Kerala Bus Tracker Map Preview</title>
  <desc id="desc">Stylized map card preview with live buses.</desc>
  <rect width="1200" height="760" rx="28" fill="#F8FAFC"/>
  <rect x="36" y="36" width="1128" height="688" rx="24" fill="#FFFFFF" stroke="#E2E8F0" stroke-width="2"/>
  <rect x="72" y="72" width="1056" height="76" rx="18" fill="#F1F5F9"/>
  <rect x="96" y="97" width="240" height="26" rx="10" fill="#0F172A" fill-opacity="0.08"/>
  <rect x="970" y="92" width="126" height="34" rx="14" fill="#334155" fill-opacity="0.1"/>
  <path d="M136 248C218 214 308 278 396 246C478 216 560 160 640 202C712 240 776 330 866 324C938 318 996 260 1066 276" stroke="#2563EB" stroke-width="18" stroke-linecap="round" stroke-linejoin="round"/>
  <circle cx="250" cy="262" r="18" fill="#16A34A"/>
  <circle cx="534" cy="214" r="18" fill="#16A34A"/>
  <circle cx="804" cy="323" r="18" fill="#D97706"/>
  <circle cx="1002" cy="283" r="18" fill="#94A3B8"/>
  <rect x="96" y="536" width="316" height="156" rx="18" fill="#F8FAFC" stroke="#E2E8F0"/>
  <rect x="122" y="564" width="190" height="18" rx="8" fill="#0F172A" fill-opacity="0.12"/>
  <rect x="122" y="598" width="256" height="14" rx="7" fill="#0F172A" fill-opacity="0.08"/>
  <rect x="122" y="624" width="210" height="14" rx="7" fill="#0F172A" fill-opacity="0.08"/>
</svg>
